HIERARCHY
ROOT Hips
{
	OFFSET -0.179506 -22.333345 2.821913
	CHANNELS 6 Xposition Yposition Zposition Zrotation Yrotation Xrotation 
	JOINT LeftUpLeg
	{
		OFFSET 6.951974 -9.140623 -0.681533
		CHANNELS 3 Zrotation Yrotation Xrotation
		JOINT LeftLeg
		{
			OFFSET 3.427654 -37.519855 -0.449580
			CHANNELS 3 Zrotation Yrotation Xrotation
			JOINT LeftFoot
			{
				OFFSET -1.359570 -39.796059 -4.369333
				CHANNELS 3 Zrotation Yrotation Xrotation
				JOINT LeftToe
				{
					OFFSET 2.635814 -5.579078 11.928840
					CHANNELS 3 Zrotation Yrotation Xrotation
					End Site
					{
						OFFSET 0.000000 0.000000 0.000000
					}
				}
			}
		}
	}
	JOINT RightUpLeg
	{
		OFFSET -6.767048 -9.052170 -0.431982
		CHANNELS 3 Zrotation Yrotation Xrotation
		JOINT RightLeg
		{
			OFFSET -3.829005 -38.256897 -0.885003
			CHANNELS 3 Zrotation Yrotation Xrotation
			JOINT RightFoot
			{
				OFFSET 1.577377 -39.841461 -4.231180
				CHANNELS 3 Zrotation Yrotation Xrotation
				JOINT RightToe
				{
					OFFSET -2.537174 -4.814398 12.334795
					CHANNELS 3 Zrotation Yrotation Xrotation
					End Site
					{
						OFFSET 0.000000 0.000000 0.000000
					}
				}
			}
		}
	}
	JOINT Spine
	{
		OFFSET -0.253288 10.896323 -2.669631
		CHANNELS 3 Zrotation Yrotation Xrotation
		JOINT Spine1
		{
			OFFSET 0.548704 13.518043 0.109247
			CHANNELS 3 Zrotation Yrotation Xrotation
			JOINT Spine2
			{
				OFFSET 0.145701 5.292222 2.542457
				CHANNELS 3 Zrotation Yrotation Xrotation
				JOINT Neck
				{
					OFFSET -0.277840 21.387037 -4.285703
					CHANNELS 3 Zrotation Yrotation Xrotation
					JOINT Head
					{
						OFFSET 0.515184 6.496960 5.134897
						CHANNELS 3 Zrotation Yrotation Xrotation
						End Site
						{
							OFFSET 0.000000 0.000000 0.000000
						}
					}
				}
				JOINT LeftShoulder
				{
					OFFSET 7.884473 12.174932 -3.408961
					CHANNELS 3 Zrotation Yrotation Xrotation
					JOINT LeftArm
					{
						OFFSET 9.097692 3.046888 -0.886815
						CHANNELS 3 Zrotation Yrotation Xrotation
						JOINT LeftForeArm
						{
							OFFSET 25.961220 -1.277207 -2.745643
							CHANNELS 3 Zrotation Yrotation Xrotation
							JOINT LeftHand
							{
								OFFSET 24.923361 0.898606 -0.117091
								CHANNELS 3 Zrotation Yrotation Xrotation
								End Site
								{
									OFFSET 0.000000 0.000000 0.000000
								}
							}
						}
					}
				}
				JOINT RightShoulder
				{
					OFFSET -8.175920 11.883285 -3.861528
					CHANNELS 3 Zrotation Yrotation Xrotation
					JOINT RightArm
					{
						OFFSET -9.601238 3.255117 -0.914307
						CHANNELS 3 Zrotation Yrotation Xrotation
						JOINT RightForeArm
						{
							OFFSET -25.374195 -1.332924 -2.140099
							CHANNELS 3 Zrotation Yrotation Xrotation
							JOINT RightHand
							{
								OFFSET -25.529810 0.777228 -0.555919
								CHANNELS 3 Zrotation Yrotation Xrotation
								End Site
								{
									OFFSET 0.000000 0.000000 0.000000
								}
							}
						}
					}
				}
			}
		}
	}
}
MOTION
Frames: 9
Frame Time: 0.033333
-121.889198 -33.777607 94.888725 -140.556670 2.401108 82.123650 19.639047 14.188112 6.209233 -1.013212 15.823039 26.475382 -6.323621 0.010859 -20.815462 nan nan nan -12.856199 -5.872061 -20.003503 -0.280636 -8.852383 32.217394 9.583384 7.336325 -8.640861 nan nan nan -0.623563 -5.287114 9.739295 8.568450 -7.616460 7.260322 5.138465 -1.435367 -5.645154 2.629943 -3.048837 21.547348 2.091446 -3.165071 18.664730 -9.847406 -25.283497 2.942068 -82.517645 -43.275721 32.597704 104.765775 -81.457422 -76.101803 8.855103 -34.983071 -31.732945 10.896481 20.081214 3.435235 36.514340 34.486809 -6.297075 -51.396053 48.775313 -41.128836 4.641178 21.490646 -24.636659 
-121.761864 -34.206451 94.628334 -138.923389 2.545683 82.235478 19.652071 13.419460 5.079780 -1.487809 15.073878 26.924859 -6.109652 0.029546 -21.468574 nan nan nan -12.929331 -5.192382 -19.778216 0.190345 -6.857750 31.336433 10.650619 7.775480 -7.648942 nan nan nan -1.540290 -3.641062 9.040024 9.444473 -7.259034 8.699395 5.862792 -2.675956 -5.761470 3.609622 -4.201422 20.485909 1.934773 -4.098614 18.629114 -10.711948 -26.179359 3.209556 -81.420996 -43.614163 33.025091 102.662330 -81.453982 -74.877039 9.080444 -35.006292 -30.849532 10.792069 19.901526 2.160982 33.867871 33.485085 -7.144479 -51.078748 47.487340 -42.566738 5.863872 21.654637 -24.181986 
-121.609245 -34.581253 94.354759 -137.436252 2.329711 82.470274 19.231687 12.965402 3.667971 -1.609142 14.734650 27.789131 -5.642383 0.108155 -22.110768 nan nan nan -13.211849 -4.764058 -19.754256 0.340533 -5.140636 30.636503 11.235863 8.295308 -6.601347 nan nan nan -1.879262 -4.026471 9.365645 9.165961 -7.655862 8.398363 5.499818 -2.012754 -5.612377 4.085821 -4.696139 20.323906 2.569344 -4.476290 18.854637 -10.906746 -25.526543 2.933305 -80.270611 -42.861623 32.972369 104.928442 -82.380691 -76.883972 10.358509 -34.567782 -31.116102 11.515873 20.066860 2.331338 32.346733 33.250829 -8.155074 -50.885123 46.233770 -43.021290 6.411621 21.815710 -23.803909 
-121.493492 -34.944153 94.106590 -135.907204 2.181526 82.665142 18.780037 12.384498 2.170752 -1.530468 14.614044 28.895431 -5.267165 0.289269 -22.805290 nan nan nan -13.527760 -4.508382 -19.549713 0.384684 -4.307482 29.899052 11.359201 8.102123 -5.972706 nan nan nan -2.165400 -4.013564 9.739022 9.056034 -7.791980 7.778789 5.372111 -1.783901 -5.185540 4.671196 -5.268933 19.921321 3.005903 -5.043242 19.251214 -11.297254 -25.106631 2.979226 -79.336331 -42.517146 32.881279 106.995303 -83.263496 -78.527194 10.443924 -34.649767 -31.002607 11.858881 19.821030 2.261443 30.965443 32.992766 -9.038394 -50.684369 45.000754 -43.243604 6.197727 21.770977 -23.764509 
-121.399376 -35.302464 93.861893 -134.377556 2.207534 82.648549 18.504360 11.475352 0.895573 -1.494784 14.543916 29.995663 -4.900257 0.698349 -23.573898 nan nan nan -13.753417 -4.469095 -19.079647 0.425218 -4.301286 29.307083 10.882291 6.508843 -6.154926 nan nan nan -2.649935 -2.972099 9.532294 9.458447 -7.471100 8.421949 5.805313 -2.394730 -4.953973 5.326434 -6.222628 18.811250 3.077431 -5.964770 19.555343 -12.027338 -25.603810 3.385019 -78.363882 -42.965034 32.917728 106.799908 -83.428323 -78.498985 9.386774 -35.109496 -30.850407 11.448364 19.425092 1.460930 29.275655 32.163168 -9.797455 -50.533881 43.634188 -44.048281 7.807563 21.927909 -23.810338 
-121.291237 -35.622219 93.609787 -132.875908 2.099483 82.554129 18.100216 10.616618 -0.294335 -1.430097 14.294028 31.156844 -4.590884 1.086252 -24.323735 nan nan nan -14.095660 -4.836702 -18.645019 0.226208 -4.915158 29.222569 10.438269 4.914088 -6.942507 nan nan nan -2.948482 -2.166054 9.526494 9.512397 -7.337882 8.726147 5.876424 -2.599661 -4.647295 6.033155 -6.948787 18.092942 3.491137 -7.105076 19.532225 -12.522610 -26.003622 3.718478 -77.272655 -43.278095 32.903673 106.683843 -83.695804 -78.734048 9.597220 -35.223786 -31.297543 11.372318 19.104790 1.054206 27.780350 31.073722 -10.632610 -50.460272 42.425103 -44.822900 6.468116 21.683901 -23.945456 
-121.172211 -35.913204 93.365326 -131.440684 1.760614 82.488546 17.421938 10.101195 -1.490912 -1.256194 13.669061 32.393103 -4.301482 1.265738 -25.075857 nan nan nan -14.629044 -5.728401 -18.354794 -0.280198 -5.916055 29.605672 10.298828 4.569506 -7.637697 nan nan nan -2.774273 -2.113345 10.115957 8.820409 -7.639664 7.916660 5.231927 -1.969982 -4.100179 6.673310 -7.411755 18.103134 4.415164 -8.125340 19.348171 -12.471524 -25.731594 3.616392 -76.369808 -42.953034 32.853577 109.314046 -84.265480 -81.491696 10.034281 -35.071760 -31.785379 11.919993 18.869031 1.171271 26.712655 30.130189 -11.947480 -50.274575 41.760562 -44.873176 7.148088 21.902304 -23.685619 
-121.068878 -36.206779 93.143860 -130.032105 1.639293 82.361851 16.992592 9.522767 -2.568027 -1.171420 12.865517 33.522655 -3.929962 1.409289 -25.741003 nan nan nan -15.004199 -6.753301 -17.837141 -0.829738 -7.261006 29.886386 10.206125 4.667732 -8.140084 nan nan nan -2.509629 -1.401785 10.667534 8.488629 -7.462193 7.245989 4.951490 -2.053650 -3.589074 7.357044 -8.151926 17.673594 5.059202 -9.296173 19.152979 -12.574035 -25.765911 3.522106 -75.833543 -42.990616 32.994563 109.860095 -84.820741 -82.161564 10.156623 -35.063332 -31.733553 11.926903 18.377009 1.114938 25.671197 28.811215 -13.120423 -50.329675 41.071678 -45.262484 5.941517 21.718270 -24.270498 
-120.965096 -36.484577 92.935371 -128.654284 1.680999 82.258213 16.781636 8.947282 -3.661476 -1.173271 12.029764 34.675819 -3.670812 1.494504 -26.265807 nan nan nan -15.268888 -7.759439 -17.147876 -1.423049 -9.034641 29.865749 10.317134 4.652040 -8.523819 nan nan nan -2.275478 -0.605289 11.038217 8.390057 -7.130190 6.956161 4.870431 -2.254915 -3.229560 7.868985 -9.138256 17.128462 5.573093 -10.262258 18.978269 -12.927891 -25.972856 3.405452 -75.383904 -43.133461 33.362757 108.422855 -85.161299 -80.970725 9.925149 -35.227035 -31.342521 11.947234 18.085445 0.997524 24.208980 27.122376 -14.273843 -50.340836 40.340883 -46.017733 6.849627 22.108102 -24.557929 
